<svg width="50" height="50" viewBox="0 0 50 50" fill="none" xmlns="http://www.w3.org/2000/svg">
<path d="M40.4632 10.5355L36.295 10.5348L36.2932 21.6871L40.4615 21.6877L40.4632 10.5355ZM29.0072 10.4859L24.8389 10.4853L24.8372 21.6426L29.0055 21.6433L29.0072 10.4859ZM11.2944 0.0120973L0.878212 9.30438L0.873073 42.7672L13.3715 42.7692L13.37 52.063L23.7873 42.7708L32.1228 42.772L50.8756 26.0435L50.8796 0.0181758L11.2944 0.0120973ZM46.7087 24.1875L38.3753 31.6197L30.0409 31.6184L22.7457 38.1237L22.7467 31.6173L13.3732 31.6159L13.3774 3.73119L46.7119 3.73631L46.7087 24.1875Z" fill="white"/>
</svg>
